<svg xmlns="http://www.w3.org/2000/svg" fill="none" viewBox="0 0 719 719">
<style>path#logo { fill: #100F06;}path#bg {fill: #E6E6E6;}@media (prefers-color-scheme: dark) {path#logo { fill: #F5F4ED; }path#bg { fill:  #100F06}}</style>
<path id="bg" d="M-14.2041-14.2041h747v747h-747z"/><path id="logo" d="M172.633 226.222V407.57h-66.617V226.222H51.2959v-56.394H227.353v45.343c0 2.931-1.165 5.742-3.238 7.815-2.074 2.072-4.886 3.236-7.818 3.236h-43.664ZM250.094 169.796h50.461c2.932 0 5.744 1.164 7.818 3.237 2.074 2.072 3.239 4.883 3.24 7.814v92.94c8.379-10.193 16.876-17.044 25.49-20.554 9.647-3.695 19.92-5.481 30.249-5.259 21.976 0 38.574 6.062 49.792 18.186 11.218 12.123 16.827 28.484 16.825 49.083v92.335H372.45v-69.581c.168-7.189-.516-14.373-2.038-21.402-.99-4.764-3.352-9.134-6.795-12.572-5.448-4.758-12.482-7.303-19.715-7.134-10.424 0-18.411 3.114-23.96 9.342-5.548 6.229-8.325 15.119-8.329 26.67v74.668h-61.519V169.796ZM457.912 318.898c-.093-12.49 2.577-24.845 7.819-36.183 5.154-11.136 12.561-21.085 21.753-29.217 9.725-8.528 20.965-15.155 33.136-19.538 13.452-4.868 27.669-7.284 41.975-7.134 14.183-.129 28.279 2.228 41.647 6.966 12.225 4.306 23.528 10.876 33.318 19.366 9.33 8.179 16.803 18.256 21.919 29.557 5.305 11.917 7.97 24.839 7.81 37.881.161 13.06-2.565 25.995-7.983 37.88-5.19 11.258-12.653 21.322-21.919 29.56-9.779 8.548-21.158 15.072-33.478 19.193-13.619 4.624-27.921 6.92-42.304 6.792-14.11.141-28.138-2.157-41.465-6.792-12.122-4.19-23.276-10.775-32.799-19.364-9.205-8.415-16.555-18.656-21.581-30.068-5.348-12.263-8.023-25.523-7.848-38.899Zm64.917.679c-.071 5.546 1.029 11.045 3.229 16.137 2.049 4.72 4.927 9.035 8.498 12.741 3.565 3.662 7.846 6.553 12.575 8.492 9.906 4.078 21.023 4.078 30.929 0 4.728-1.942 9.009-4.832 12.577-8.492 3.567-3.709 6.445-8.023 8.498-12.741 2.175-4.981 3.275-10.363 3.229-15.797.022-5.323-1.078-10.59-3.229-15.458-2.055-4.717-4.933-9.031-8.498-12.741-3.569-3.658-7.849-6.548-12.577-8.492-9.906-4.079-21.023-4.079-30.929 0-4.729 1.941-9.009 4.831-12.575 8.492-3.542 3.665-6.417 7.918-8.498 12.57-2.164 4.805-3.265 10.02-3.229 15.289ZM372.263 433.456h50.458c1.453 0 2.891.286 4.233.842 1.342.556 2.561 1.37 3.588 2.397 1.026 1.027 1.841 2.246 2.396 3.588.555 1.341.84 2.779.839 4.231v10.35c16.767-16.079 35.575-24.119 56.423-24.121 25.83 0 45.543 10.872 59.139 32.614 13.817-21.966 33.53-32.95 59.139-32.953 7.845-.049 15.647 1.155 23.112 3.567 7.012 2.236 13.409 6.07 18.686 11.2 5.548 5.633 9.783 12.42 12.404 19.877 3.277 9.501 4.83 19.511 4.588 29.557v54.187h-61.51v-27.003c.138-7.293-.488-14.58-1.868-21.743-.864-4.749-2.717-9.264-5.438-13.252-2.073-2.931-4.973-5.178-8.33-6.454-3.276-1.147-6.725-1.722-10.197-1.699-19.711 0-29.568 14.383-29.571 43.148v27.007h-61.513v-27.007c.121-7.34-.448-14.676-1.698-21.91-.795-4.847-2.466-9.509-4.932-13.757-1.911-3.195-4.847-5.65-8.33-6.966-3.825-1.314-7.851-1.947-11.895-1.871-3.695-.024-7.368.551-10.879 1.7-3.589 1.274-6.721 3.578-9.005 6.624-2.963 4.053-5.048 8.68-6.119 13.584-1.646 7.415-2.388 15.001-2.21 22.594v27.007h-61.51V433.456ZM106.094 491.897v-56.395h205.579v45.343c0 2.931-1.165 5.742-3.238 7.815-2.074 2.072-4.886 3.237-7.818 3.237H106.094Z"/>
</svg>
