<svg width="1024" height="1024" viewBox="0 0 1024 1024" fill="none" xmlns="http://www.w3.org/2000/svg">
<rect width="1024" height="1024" fill="#DE1A1A"/>
<path d="M355.828 400.642V552.397H300.093V400.642H254.312V353.449H401.61V391.394C401.61 393.846 400.635 396.199 398.9 397.933C397.166 399.667 394.813 400.642 392.36 400.642H355.828Z" fill="#E6E6E6"/>
<path d="M420.636 353.422H462.854C465.307 353.422 467.66 354.397 469.395 356.131C471.13 357.865 472.105 360.218 472.106 362.671V440.444C479.116 431.915 486.225 426.181 493.432 423.244C501.503 420.152 510.099 418.658 518.74 418.844C537.126 418.844 551.013 423.916 560.399 434.062C569.784 444.207 574.477 457.899 574.476 475.136V552.403H523.006V494.177C523.146 488.161 522.573 482.149 521.3 476.267C520.472 472.281 518.496 468.624 515.615 465.747C511.057 461.765 505.172 459.635 499.121 459.777C490.399 459.777 483.717 462.383 479.075 467.595C474.432 472.807 472.109 480.246 472.106 489.912V552.396H420.636V353.422Z" fill="#E6E6E6"/>
<path d="M594.508 478.194C594.429 467.743 596.663 457.403 601.049 447.916C605.361 438.596 611.558 430.271 619.249 423.466C627.385 416.33 636.789 410.784 646.972 407.117C658.227 403.043 670.122 401.021 682.091 401.147C693.957 401.038 705.75 403.011 716.935 406.975C727.163 410.579 736.619 416.077 744.81 423.182C752.616 430.026 758.868 438.459 763.149 447.916C767.587 457.888 769.816 468.701 769.683 479.615C769.817 490.544 767.537 501.368 763.004 511.314C758.661 520.735 752.418 529.157 744.665 536.05C736.484 543.204 726.963 548.663 716.656 552.112C705.261 555.981 693.296 557.902 681.262 557.796C669.457 557.913 657.72 555.99 646.57 552.112C636.429 548.605 627.096 543.095 619.13 535.907C611.428 528.865 605.279 520.296 601.073 510.746C596.599 500.484 594.361 489.388 594.508 478.194V478.194ZM648.82 478.762C648.761 483.404 649.682 488.005 651.522 492.266C653.236 496.216 655.644 499.827 658.632 502.928C661.615 505.993 665.196 508.412 669.153 510.035C677.44 513.447 686.741 513.447 695.029 510.035C698.985 508.409 702.567 505.991 705.552 502.928C708.537 499.825 710.944 496.214 712.662 492.266C714.481 488.098 715.402 483.594 715.363 479.047C715.382 474.593 714.462 470.185 712.662 466.111C710.942 462.164 708.535 458.554 705.552 455.449C702.566 452.388 698.985 449.969 695.029 448.343C686.741 444.93 677.44 444.93 669.153 448.343C665.197 449.967 661.616 452.386 658.632 455.449C655.669 458.516 653.263 462.076 651.522 465.968C649.711 469.989 648.79 474.353 648.82 478.762V478.762Z" fill="#E6E6E6"/>
<path d="M522.849 574.059H565.065C566.281 574.059 567.484 574.298 568.607 574.763C569.729 575.228 570.749 575.91 571.608 576.769C572.467 577.629 573.148 578.649 573.613 579.772C574.078 580.894 574.316 582.097 574.316 583.312V591.974C588.344 578.518 604.079 571.79 621.522 571.789C643.132 571.789 659.625 580.886 671 599.08C682.56 580.699 699.053 571.507 720.479 571.505C727.042 571.464 733.57 572.471 739.815 574.49C745.683 576.361 751.035 579.569 755.449 583.862C760.091 588.576 763.635 594.255 765.827 600.496C768.569 608.447 769.869 616.823 769.666 625.23V670.574H718.203V647.978C718.319 641.875 717.795 635.777 716.64 629.783C715.917 625.808 714.367 622.031 712.091 618.694C710.356 616.24 707.93 614.36 705.122 613.292C702.381 612.332 699.495 611.851 696.59 611.871C680.099 611.871 671.852 623.907 671.849 647.978V670.578H620.385V647.978C620.486 641.836 620.01 635.697 618.964 629.643C618.299 625.587 616.9 621.686 614.837 618.131C613.239 615.457 610.783 613.403 607.868 612.302C604.668 611.202 601.299 610.672 597.916 610.736C594.825 610.716 591.752 611.197 588.814 612.159C585.812 613.224 583.191 615.153 581.281 617.702C578.801 621.093 577.057 624.965 576.16 629.069C574.784 635.274 574.163 641.623 574.312 647.976V670.576H522.849V574.059Z" fill="#E6E6E6"/>
<path d="M300.159 622.963V575.771H472.156V613.715C472.156 616.168 471.182 618.52 469.447 620.255C467.712 621.989 465.36 622.963 462.906 622.963H300.159Z" fill="#E6E6E6"/>
</svg>
