<?xml version="1.0" encoding="UTF-8"?>
<!-- This file is generated by npm run build:icons -->
<svg xmlns="http://www.w3.org/2000/svg" xmlns:xlink="http://www.w3.org/1999/xlink" width="0" height="0">
<defs>
<symbol class="lucide lucide-power" viewBox="0 0 24 24" fill="inherit" stroke="currentColor" stroke-width="2" stroke-linecap="round" stroke-linejoin="round" id="power">
  <path d="M12 2v10" ></path>
  <path d="M18.4 6.6a9 9 0 1 1-12.77.04" ></path>
</symbol>
<symbol class="lucide lucide-share" viewBox="0 0 24 24" fill="inherit" stroke="currentColor" stroke-width="2" stroke-linecap="round" stroke-linejoin="round" id="share">
  <path d="M4 12v8a2 2 0 0 0 2 2h12a2 2 0 0 0 2-2v-8" ></path>
  <polyline points="16 6 12 2 8 6" ></polyline>
  <line x1="12" x2="12" y1="2" y2="15" ></line>
</symbol>
<symbol class="lucide lucide-trash" viewBox="0 0 24 24" fill="inherit" stroke="currentColor" stroke-width="2" stroke-linecap="round" stroke-linejoin="round" id="trash">
  <path d="M3 6h18" ></path>
  <path d="M19 6v14c0 1-1 2-2 2H7c-1 0-2-1-2-2V6" ></path>
  <path d="M8 6V4c0-1 1-2 2-2h4c1 0 2 1 2 2v2" ></path>
</symbol>
</defs>
</svg>
