<svg width="179" height="110" viewBox="0 0 179 110" fill="none" xmlns="http://www.w3.org/2000/svg">
<path d="M34.9823 16.2747V68.5801H15.776V16.2747H0V0.00885773H50.7584V13.0871C50.7584 13.9325 50.4225 14.7433 49.8248 15.341C49.227 15.9388 48.4162 16.2747 47.5708 16.2747H34.9823Z" fill="#162527"/>
<path d="M58.6805 -2.28882e-05H73.2287C74.0742 -2.29048e-05 74.885 0.33579 75.4829 0.933556C76.0808 1.53132 76.4167 2.34209 76.4169 3.18755V29.9937C78.8326 27.0538 81.2823 25.0777 83.7659 24.0653C86.5472 22.9997 89.509 22.4846 92.4868 22.5487C98.8228 22.5487 103.608 24.297 106.842 27.7938C110.077 31.2906 111.694 36.0096 111.693 41.9508V68.5826H93.9567V48.5137C94.0051 46.44 93.8078 44.368 93.369 42.3408C93.0838 40.9668 92.4028 39.7063 91.41 38.7146C89.8392 37.3423 87.8114 36.6081 85.7262 36.657C82.7206 36.657 80.418 37.5552 78.8183 39.3516C77.2186 41.1481 76.4182 43.7121 76.4169 47.0438V68.58H58.6805V-2.28882e-05Z" fill="#162527"/>
<path d="M118.597 43.005C118.57 39.4026 119.339 35.8389 120.851 32.5689C122.337 29.3568 124.472 26.4875 127.122 24.1418C129.926 21.6823 133.166 19.7708 136.675 18.5067C140.554 17.1026 144.653 16.4057 148.777 16.4491C152.866 16.4117 156.93 17.0917 160.784 18.458C164.309 19.7 167.568 21.595 170.39 24.0439C173.08 26.4028 175.234 29.3094 176.71 32.5689C178.239 36.0059 179.007 39.733 178.961 43.4947C179.007 47.2616 178.222 50.9923 176.66 54.4205C175.163 57.6675 173.012 60.5701 170.34 62.9462C167.521 65.4119 164.24 67.2935 160.688 68.4821C156.762 69.8157 152.638 70.478 148.492 70.4411C144.424 70.4817 140.379 69.8189 136.537 68.4821C133.042 67.2736 129.826 65.3742 127.081 62.8969C124.427 60.4697 122.308 57.5162 120.859 54.2246C119.317 50.6876 118.546 46.863 118.597 43.005V43.005ZM137.312 43.2009C137.292 44.8005 137.609 46.3865 138.243 47.8552C138.834 49.2166 139.664 50.4611 140.693 51.53C141.721 52.5863 142.955 53.42 144.319 53.9794C147.175 55.1557 150.38 55.1557 153.236 53.9794C154.599 53.4192 155.833 52.5856 156.862 51.53C157.89 50.4603 158.72 49.2159 159.312 47.8552C159.939 46.4187 160.256 44.8661 160.243 43.2988C160.249 41.7637 159.932 40.2446 159.312 38.8404C158.719 37.48 157.89 36.2357 156.862 35.1656C155.833 34.1104 154.599 33.2768 153.236 32.7161C150.38 31.5399 147.175 31.5399 144.319 32.7161C142.956 33.276 141.722 34.1097 140.693 35.1656C139.672 36.2226 138.843 37.4495 138.243 38.7911C137.619 40.1769 137.302 41.6811 137.312 43.2009V43.2009Z" fill="#162527"/>
<path d="M93.903 76.0466H108.451C108.869 76.0466 109.284 76.1291 109.671 76.2894C110.058 76.4497 110.409 76.6846 110.705 76.9808C111.001 77.277 111.236 77.6287 111.396 78.0156C111.556 78.4026 111.638 78.8173 111.638 79.236V82.2214C116.472 77.5837 121.894 75.2646 127.905 75.2642C135.352 75.2642 141.035 78.3997 144.955 84.6708C148.939 78.3353 154.622 75.1671 162.005 75.1662C164.267 75.1521 166.516 75.4994 168.669 76.1951C170.69 76.84 172.535 77.946 174.056 79.4256C175.655 81.0501 176.877 83.0078 177.632 85.1587C178.577 87.899 179.025 90.786 178.955 93.6837V109.313H161.221V101.524C161.261 99.4208 161.08 97.3188 160.683 95.2528C160.433 93.8831 159.899 92.581 159.115 91.4308C158.517 90.5853 157.681 89.9371 156.713 89.5691C155.769 89.2382 154.774 89.0725 153.773 89.0793C148.091 89.0793 145.249 93.2276 145.248 101.524V109.314H127.513V101.524C127.548 99.4071 127.384 97.2913 127.024 95.2048C126.794 93.8068 126.313 92.4622 125.602 91.2368C125.051 90.3153 124.204 89.6073 123.2 89.2278C122.097 88.8488 120.937 88.6661 119.771 88.6881C118.706 88.6813 117.646 88.8469 116.634 89.1785C115.6 89.5457 114.697 90.2103 114.038 91.0889C113.184 92.2579 112.583 93.5924 112.274 95.007C111.799 97.1456 111.586 99.3337 111.637 101.524V109.313H93.903V76.0466Z" fill="#162527"/>
<path d="M15.7988 92.9026V76.6368H76.4346V89.715C76.4346 90.5604 76.0987 91.3712 75.501 91.9689C74.9032 92.5667 74.0924 92.9026 73.247 92.9026H15.7988Z" fill="#162527"/>
</svg>
