<svg width="1169" height="349" viewBox="0 0 1169 349" fill="none" xmlns="http://www.w3.org/2000/svg">
<path d="M456.08 348.437V308.929H593.408V348.437H456.08Z" fill="#2B2C32"/>
<path d="M815.776 348.194V308.116H959.057V348.194H815.776Z" fill="#2B2C32"/>
<path d="M311.982 302.612V260.776H346.963C362.666 260.776 374.795 256.499 383.35 247.944C391.904 239.39 396.182 227.378 396.182 211.909C396.182 197.495 391.904 186.362 383.35 178.511C374.795 170.659 362.666 166.733 346.963 166.733H312.686V125.073H346.963C378.252 125.073 402.393 132.397 419.385 147.046C436.377 161.694 444.873 182.437 444.873 209.272C444.873 239.038 436.377 262.065 419.385 278.354C402.393 294.526 378.252 302.612 346.963 302.612H311.982Z" fill="#2B2C32"/>
<path d="M280.85 347.683V125.073H326.201V347.683H280.85Z" fill="#2B2C32"/>
<path d="M538.037 263.905L527.138 200.272H542.958C544.833 169.569 560.83 154.218 590.947 154.218C608.876 154.218 622.47 160.604 631.728 173.378L593.408 205.194C589.423 200.155 582.919 197.636 573.896 197.636C561.826 197.636 552.802 203.378 546.826 214.862C540.966 226.347 538.037 242.694 538.037 263.905Z" fill="#2B2C32"/>
<path d="M491.63 347.437V161.108H531.005L538.037 214.546V347.437H491.63Z" fill="#2B2C32"/>
<path d="M469.626 194.011V154.108H532.06L535.576 194.011H469.626Z" fill="#2B2C32"/>
<path d="M732.689 348.12C700.463 348.12 675.561 339.8 657.982 323.159C640.521 306.401 631.791 282.378 631.791 251.089C631.791 220.62 639.232 196.948 654.115 180.073C668.998 163.198 690.033 154.761 717.221 154.761C743.705 154.761 764.154 162.554 778.568 178.14C792.982 193.726 800.189 216.343 800.189 245.991C800.189 254.429 799.838 270.456 799.135 278.073H663.08V237.378H754.838C754.838 224.487 751.557 214.585 744.994 207.671C738.432 200.757 729.291 197.3 717.572 197.3C704.799 197.3 694.838 201.812 687.689 210.835C680.658 219.858 677.143 232.69 677.143 249.331C677.143 267.261 682.299 280.913 692.611 290.288C703.041 299.663 717.807 304.351 736.908 304.351C745.229 304.351 753.432 303.94 761.518 303.12C769.721 302.183 778.041 300.952 786.479 299.429L791.049 343.198C779.213 345.308 768.373 346.655 758.529 347.241C748.803 347.827 740.189 348.12 732.689 348.12Z" fill="#2B2C32"/>
<path d="M851.283 329.562L815.776 308.116L929.967 177.202L963.541 197.944L851.283 329.562Z" fill="#2B2C32"/>
<path d="M824.775 197.944V157.866H963.541V197.944H824.775Z" fill="#2B2C32"/>
<path d="M1101.98 342.952L1098.12 292.757L1097.06 269.378V231.761C1097.06 215.565 1092.78 208.124 1084.23 203.437C1075.67 198.632 1063.02 197.995 1046.26 197.526L998.975 196.296L1002.49 154.108L1042.74 154.636C1076.14 155.104 1100.99 159.784 1117.28 172.675C1133.56 185.448 1141.71 210.14 1141.71 234.749V310.534L1168.08 303.401V342.952H1101.98Z" fill="#2B2C32"/>
<path d="M1038.7 348.71C1018.9 348.71 1003.49 343.905 992.471 334.296C981.572 324.569 976.123 310.741 976.123 292.811C976.123 272.069 983.33 256.19 997.744 245.175C1012.16 234.042 1032.67 230.476 1059.27 230.476C1076.67 230.476 1091.74 230.132 1108.66 235.155L1100.93 271.015C1093.43 269.257 1086.57 268.261 1080.36 268.026C1074.27 267.675 1067.88 267.499 1061.2 267.499C1035.77 267.499 1023.06 274.823 1023.06 289.472C1023.06 296.034 1025.34 301.073 1029.91 304.589C1034.48 307.987 1041.1 309.686 1049.78 309.686C1060.32 309.686 1069.05 307.753 1075.97 303.886C1083 300.019 1088.27 295.097 1091.79 289.12C1095.3 283.026 1097.06 276.815 1097.06 270.487V258.007L1104.09 305.819H1089.15L1095.3 300.194C1095.07 310.976 1092.61 319.999 1087.92 327.265C1083.35 334.413 1076.9 339.804 1068.58 343.436C1060.26 346.952 1050.3 348.71 1038.7 348.71Z" fill="#2B2C32"/>
<path fill-rule="evenodd" clip-rule="evenodd" d="M159.967 6.54151C168.689 11.577 171.677 22.7293 166.642 31.451L125.372 105.762C122.954 109.95 118.971 113.006 114.299 114.258C109.628 115.51 104.65 114.854 100.462 112.436L40.9067 78.0521C32.1851 73.0166 29.1968 61.8642 34.2323 53.1425C39.2677 44.4209 50.4201 41.4326 59.1418 46.4681L102.905 71.7348L135.058 13.216C140.093 4.49431 151.245 1.50604 159.967 6.54151Z" fill="#66B634"/>
<path fill-rule="evenodd" clip-rule="evenodd" d="M235.949 165.54C230.913 174.262 219.761 177.25 211.039 172.215L136.728 130.945C132.54 128.527 129.484 124.544 128.232 119.872C126.98 115.201 127.636 110.224 130.054 106.035L164.438 46.4799C169.473 37.7583 180.626 34.77 189.347 39.8055C198.069 44.8409 201.057 55.9933 196.022 64.715L170.755 108.478L229.274 140.631C237.996 145.666 240.984 156.819 235.949 165.54Z" fill="#2B2C32"/>
<path fill-rule="evenodd" clip-rule="evenodd" d="M2.62772 84.1905C7.66318 75.4688 18.8155 72.4805 27.5372 77.516L101.848 118.786C106.036 121.204 109.093 125.187 110.344 129.858C111.596 134.53 110.941 139.507 108.523 143.696L74.1383 203.251C69.1028 211.973 57.9504 214.961 49.2288 209.925C40.5071 204.89 37.5188 193.738 42.5543 185.016L67.821 141.253L9.3022 109.1C0.580518 104.065 -2.40775 92.9122 2.62772 84.1905Z" fill="#2B2C32"/>
<path fill-rule="evenodd" clip-rule="evenodd" d="M78.2899 243.723C69.5682 238.688 66.58 227.535 71.6154 218.814L112.885 144.503C115.304 140.314 119.286 137.258 123.958 136.007C128.629 134.755 133.607 135.41 137.795 137.828L197.35 172.213C206.072 177.248 209.06 188.4 204.025 197.122C198.989 205.844 187.837 208.832 179.115 203.797L135.352 178.53L103.199 237.049C98.164 245.77 87.0116 248.759 78.2899 243.723Z" fill="#2B2C32"/>
</svg>
